<?xml version="1.0" encoding="UTF-8" standalone="no"?>
<!DOCTYPE svg PUBLIC "-//W3C//DTD SVG 1.1//EN"
 "http://www.w3.org/Graphics/SVG/1.1/DTD/svg11.dtd">
<!-- Generated by graphviz version 2.47.0 (20210316.0004)
 -->
<!-- Title: dependencies Pages: 1 -->
<svg width="963pt" height="211pt"
 viewBox="0.00 0.00 963.00 211.00" xmlns="http://www.w3.org/2000/svg" xmlns:xlink="http://www.w3.org/1999/xlink">
<g id="graph0" class="graph" transform="scale(1 1) rotate(0) translate(4 207)">
<title>dependencies</title>
<polygon fill="white" stroke="transparent" points="-4,4 -4,-207 959,-207 959,4 -4,4"/>
<text text-anchor="start" x="456.51" y="-42.4" font-family="Times-12" font-weight="bold" font-size="14.00">Legend</text>
<polygon fill="#ffffb3" stroke="transparent" points="243.5,-10 243.5,-30 263.5,-30 263.5,-10 243.5,-10"/>
<text text-anchor="start" x="267.13" y="-15.4" font-family="Times-12" font-size="14.00"> &#160;Declarations</text>
<polygon fill="#8dd3c7" stroke="transparent" points="356.5,-10 356.5,-30 376.5,-30 376.5,-10 356.5,-10"/>
<text text-anchor="start" x="380.23" y="-15.4" font-family="Times-12" font-size="14.00"> &#160;Module</text>
<polygon fill="#80b1d3" stroke="transparent" points="442.5,-10 442.5,-30 462.5,-30 462.5,-10 442.5,-10"/>
<text text-anchor="start" x="466.28" y="-15.4" font-family="Times-12" font-size="14.00"> &#160;Bootstrap</text>
<polygon fill="#fdb462" stroke="transparent" points="539.5,-10 539.5,-30 559.5,-30 559.5,-10 539.5,-10"/>
<text text-anchor="start" x="563.17" y="-15.4" font-family="Times-12" font-size="14.00"> &#160;Providers</text>
<polygon fill="#fb8072" stroke="transparent" points="635.5,-10 635.5,-30 655.5,-30 655.5,-10 635.5,-10"/>
<text text-anchor="start" x="659.23" y="-15.4" font-family="Times-12" font-size="14.00"> &#160;Exports</text>
<g id="clust1" class="cluster">
<title>cluster_LoginModule</title>
<polygon fill="none" stroke="black" stroke-dasharray="1,5" points="8,-70 8,-195 947,-195 947,-70 8,-70"/>
</g>
<g id="clust2" class="cluster">
<title>cluster_LoginModule_declarations</title>
<polygon fill="none" stroke="black" points="178,-78 178,-130 939,-130 939,-78 178,-78"/>
</g>
<g id="clust7" class="cluster">
<title>cluster_LoginModule_imports</title>
<polygon fill="none" stroke="black" points="16,-78 16,-130 170,-130 170,-78 16,-78"/>
</g>
<!-- PageForgotPasswordComponent -->
<g id="node1" class="node">
<title>PageForgotPasswordComponent</title>
<polygon fill="#ffffb3" stroke="black" points="930.53,-122 731.47,-122 731.47,-86 930.53,-86 930.53,-122"/>
<text text-anchor="middle" x="831" y="-99.8" font-family="Times,serif" font-size="14.00">PageForgotPasswordComponent</text>
</g>
<!-- LoginModule -->
<g id="node5" class="node">
<title>LoginModule</title>
<polygon fill="#8dd3c7" stroke="black" points="475.49,-187 472.49,-191 451.49,-191 448.49,-187 382.51,-187 382.51,-151 475.49,-151 475.49,-187"/>
<text text-anchor="middle" x="429" y="-164.8" font-family="Times,serif" font-size="14.00">LoginModule</text>
</g>
<!-- PageForgotPasswordComponent&#45;&gt;LoginModule -->
<g id="edge1" class="edge">
<title>PageForgotPasswordComponent&#45;&gt;LoginModule</title>
<path fill="none" stroke="black" d="M831,-122.28C831,-143.32 831,-175 831,-175 831,-175 485.51,-175 485.51,-175"/>
<polygon fill="black" stroke="black" points="485.51,-171.5 475.51,-175 485.51,-178.5 485.51,-171.5"/>
</g>
<!-- PageResetPasswordComponent -->
<g id="node2" class="node">
<title>PageResetPasswordComponent</title>
<polygon fill="#ffffb3" stroke="black" points="713.8,-122 520.2,-122 520.2,-86 713.8,-86 713.8,-122"/>
<text text-anchor="middle" x="617" y="-99.8" font-family="Times,serif" font-size="14.00">PageResetPasswordComponent</text>
</g>
<!-- PageResetPasswordComponent&#45;&gt;LoginModule -->
<g id="edge2" class="edge">
<title>PageResetPasswordComponent&#45;&gt;LoginModule</title>
<path fill="none" stroke="black" d="M617,-122.02C617,-139.37 617,-163 617,-163 617,-163 485.96,-163 485.96,-163"/>
<polygon fill="black" stroke="black" points="485.96,-159.5 475.96,-163 485.96,-166.5 485.96,-159.5"/>
</g>
<!-- PageSignInComponent -->
<g id="node3" class="node">
<title>PageSignInComponent</title>
<polygon fill="#ffffb3" stroke="black" points="501.88,-122 356.12,-122 356.12,-86 501.88,-86 501.88,-122"/>
<text text-anchor="middle" x="429" y="-99.8" font-family="Times,serif" font-size="14.00">PageSignInComponent</text>
</g>
<!-- PageSignInComponent&#45;&gt;LoginModule -->
<g id="edge3" class="edge">
<title>PageSignInComponent&#45;&gt;LoginModule</title>
<path fill="none" stroke="black" d="M429,-122.11C429,-122.11 429,-140.99 429,-140.99"/>
<polygon fill="black" stroke="black" points="425.5,-140.99 429,-150.99 432.5,-140.99 425.5,-140.99"/>
</g>
<!-- PageSignUpComponent -->
<g id="node4" class="node">
<title>PageSignUpComponent</title>
<polygon fill="#ffffb3" stroke="black" points="337.82,-122 186.18,-122 186.18,-86 337.82,-86 337.82,-122"/>
<text text-anchor="middle" x="262" y="-99.8" font-family="Times,serif" font-size="14.00">PageSignUpComponent</text>
</g>
<!-- PageSignUpComponent&#45;&gt;LoginModule -->
<g id="edge4" class="edge">
<title>PageSignUpComponent&#45;&gt;LoginModule</title>
<path fill="none" stroke="black" d="M262,-122.02C262,-139.37 262,-163 262,-163 262,-163 372.48,-163 372.48,-163"/>
<polygon fill="black" stroke="black" points="372.48,-166.5 382.48,-163 372.48,-159.5 372.48,-166.5"/>
</g>
<!-- LoginRoutingModule -->
<g id="node6" class="node">
<title>LoginRoutingModule</title>
<polygon fill="#8dd3c7" stroke="black" points="162.11,-122 159.11,-126 138.11,-126 135.11,-122 23.89,-122 23.89,-86 162.11,-86 162.11,-122"/>
<text text-anchor="middle" x="93" y="-99.8" font-family="Times,serif" font-size="14.00">LoginRoutingModule</text>
</g>
<!-- LoginRoutingModule&#45;&gt;LoginModule -->
<g id="edge5" class="edge">
<title>LoginRoutingModule&#45;&gt;LoginModule</title>
<path fill="none" stroke="black" d="M93,-122.28C93,-143.32 93,-175 93,-175 93,-175 372.28,-175 372.28,-175"/>
<polygon fill="black" stroke="black" points="372.28,-178.5 382.28,-175 372.28,-171.5 372.28,-178.5"/>
</g>
</g>
</svg>
